<?xml version="1.0" encoding="UTF-8"?>
<!DOCTYPE svg PUBLIC "-//W3C//DTD SVG 1.1//EN" "http://www.w3.org/Graphics/SVG/1.1/DTD/svg11.dtd">
<!-- Creator: CorelDRAW -->
<svg xmlns="http://www.w3.org/2000/svg" xml:space="preserve" width="3.41333in" height="3.41333in" version="1.1" style="shape-rendering:geometricPrecision; text-rendering:geometricPrecision; image-rendering:optimizeQuality; fill-rule:evenodd; clip-rule:evenodd"
viewBox="0 0 3413.33 3413.33"
 xmlns:xlink="http://www.w3.org/1999/xlink"
 xmlns:xodm="http://www.corel.com/coreldraw/odm/2003">
 <defs>
  <style type="text/css">
   <![CDATA[
    .fil2 {fill:#21619A}
    .fil1 {fill:url(#id0)}
    .fil0 {fill:url(#id1)}
   ]]>
  </style>
  <radialGradient id="id0" gradientUnits="userSpaceOnUse" gradientTransform="matrix(1.17827 0.789018 0.795081 -1.00348 164 -6177)" cx="4654.52" cy="-1250" r="409.39" fx="4654.52" fy="-1250">
   <stop offset="0" style="stop-opacity:1; stop-color:#3F89C9"/>
   <stop offset="1" style="stop-opacity:1; stop-color:#083955"/>
  </radialGradient>
  <radialGradient id="id1" gradientUnits="userSpaceOnUse" gradientTransform="matrix(1.17573 0.837877 0.793369 -1.06562 1148 -9144)" xlink:href="#id0" cx="4751.74" cy="-2499.35" r="582.85" fx="4751.74" fy="-2499.35">
  </radialGradient>
 </defs>
<symbol id="Fm0-33-0" viewBox="3774.06 -3316.37 1880.16 1738.35">
 <path class="fil0" d="M3886.51 -2103.61c-221.09,-413.25 -101.64,-881.59 231.22,-1173.57 55.26,-48.47 120.19,-58.65 150.5,7.87 0.19,0.43 0.37,0.85 0.58,1.26 250.86,549.53 742.61,889.03 1288.18,941.69 71.08,6.85 116.15,80.53 89.43,146.72 -81.78,202.61 -231.42,378.01 -437.85,488.33 -473.07,252.82 -1064.99,68.2 -1322.07,-412.32z"/>
</symbol>
<symbol id="Fm1-35-0" viewBox="4014.84 -1796.97 1279.35 1189.06">
 <path class="fil1" d="M4372.28 -688.79c-198.87,-127.89 -196.87,-453.86 -229.56,-733.82 -13.48,-115.46 -151.13,-225.85 -124.46,-306.93 15.17,-46.13 18.21,-87.56 60.29,-56.85 0.26,0.18 0.53,0.39 0.79,0.58 347.96,253.44 716.64,299.1 1059,163.31 44.6,-17.7 143.83,20.3 152.01,68.33 25.04,146.94 -80.9,274.44 -82.3,428.06 -3.94,429.59 -509.17,647.36 -835.78,437.32z"/>
</symbol>
 <g id="Layer_x0020_1">
  <metadata id="CorelCorpID_0Corel-Layer"/>
  <g id="_1364033725376">
   <path class="fil2" d="M1706.44 1752.8c-117.86,0 -217.74,-46.94 -296.72,-126.39 -66.28,-66.64 -109.69,-156.25 -119.94,-250.35l-0.34 -98.4c5.49,-43.86 15.74,-87.61 33.47,-125.87 22.98,-49.59 49.77,-90.73 85.85,-127.01 32.46,-32.65 79.13,-69.53 122.94,-87.8 61.76,-25.74 102.8,-39.56 176.65,-39.56 48.14,0 91.42,9.12 133.57,23.29 112.65,37.89 196.08,122.52 247.44,229.77 16.98,35.48 36.12,107.91 35.64,150.61 -0.11,10.71 2.04,17.7 1.83,24.87 -0.21,7.17 -1.94,12.55 -1.83,23.18 0.55,48.15 -19.05,108.45 -36.03,150.2 -9.84,24.18 -23.94,46.85 -37.73,67.77 -9.67,14.67 -46.39,60.25 -60.83,71.46 -14.48,11.24 -21.07,20.07 -44.28,36.2 -53.43,37.13 -82.8,48.31 -144.34,66.28 -23.81,6.95 -65.13,11.74 -95.35,11.74zm-740.92 895.75l-16.33 0c-11.83,-1.43 -23.53,-5.95 -33.78,-13.68 -32.3,-24.34 -23.81,-62.21 -23.1,-86.22 0.2,-6.88 -0.43,-14.37 -0.07,-21.22 2.56,-47.86 13.31,-108.98 24.47,-154.15 12.59,-50.94 37,-117.2 60.25,-164.31 5.34,-10.81 9.85,-17.83 15.3,-28.83 4.91,-9.93 10.32,-18.65 15.96,-28.15 5.69,-9.56 10.89,-17.78 17.05,-27.06 17.92,-26.92 36.01,-52.73 56.79,-77.45 29.23,-34.79 74.23,-81.85 111.34,-111 9.23,-7.25 16.72,-13.56 25.68,-20.3 30.07,-22.63 45.36,-32.95 78.96,-53.21 19.33,-11.67 38.52,-21.22 58.65,-31.36l61.15 -26.92c-5.2,-7.13 -108.62,-63.36 -179.05,-183.21 -17.3,-29.45 -33.74,-58.13 -45.3,-90.93 -31.74,-90.11 -37.5,-126.72 -37.5,-227.54 0,-114.08 47.52,-231.22 114.4,-321.29 47.71,-64.23 127.86,-131.63 200.17,-163.91 66.13,-29.52 135.15,-53.02 211.03,-53.02l2.93 0 2.91 0 2.86 0 2.85 0 2.81 0 2.8 0 2.77 0c52.32,0.1 91.65,1.4 146.16,17.52 17.39,5.15 33.8,9.37 50.74,16.25 16.47,6.69 32.09,12.65 46.98,20.02 29.69,14.69 56.94,31.83 83.26,50.82 72.29,52.12 142.24,138.31 178.54,220.26 55.73,125.86 65.1,262 27.6,394.85 -16.73,59.29 -39.65,104.24 -71.64,154.77l-52.9 67.9 -50.78 48.88c-91.21,78.03 -198.79,119.31 -318.71,129.25 -24.84,2.06 -54.55,0.07 -78.38,1.91 -105.96,8.18 -162.34,26.48 -255.19,68.19 -5.85,2.63 -7.53,4.5 -13.51,7.56 -5.3,2.71 -9.37,4.54 -14.08,7 -26.69,13.95 -95.79,61.39 -118.96,84.09l-41.08 39.43c-13.84,13.94 -25.36,27.24 -38.11,42.41 -6.29,7.48 -12.19,15.08 -17.82,22.44 -24.94,32.64 -36.14,53.84 -56.2,87.64 -38.59,64.99 -76.15,183.97 -81.31,262.29 -0.7,10.53 -1.16,26.67 -2.8,37.56 -4.81,32.18 4.72,44.01 -10,70.67 -10.42,18.84 -28.4,29.66 -47.78,32.03z"/>
   <path class="fil2" d="M2170.88 2041.12c0,37.92 24.89,52.12 39.56,69.77 17.52,21.08 33.22,39.06 49.46,61.75 67.13,93.92 108.23,197.12 124.94,316.46 3.69,26.45 7,103.48 7.17,104.27 1.53,7.82 3.59,14.86 6.26,20.62 2.02,4.37 8.48,13.33 11.93,16.83 9.92,10.04 23.09,15.96 36.92,17.72l17.49 0c29.08,-3.63 56.3,-25.54 57.94,-66.31l0 -4.11 -5.56 -87.39c-4.27,-44.41 -13.74,-94.74 -25.24,-134.15 -37.4,-128.1 -90.51,-229.44 -177.99,-328.45 -20.37,-23.06 -41.37,-52.37 -75.99,-52.37 -39.34,0 -66.89,32.61 -66.89,65.35z"/>
  </g>
 </g>
</svg>
