<?xml version="1.0" encoding="UTF-8"?>
<!DOCTYPE svg PUBLIC "-//W3C//DTD SVG 1.1//EN" "http://www.w3.org/Graphics/SVG/1.1/DTD/svg11.dtd">
<!-- Creator: CorelDRAW -->
<svg xmlns="http://www.w3.org/2000/svg" xml:space="preserve" width="3.41333in" height="3.41333in" version="1.1" style="shape-rendering:geometricPrecision; text-rendering:geometricPrecision; image-rendering:optimizeQuality; fill-rule:evenodd; clip-rule:evenodd"
viewBox="0 0 3413.33 3413.33"
 xmlns:xlink="http://www.w3.org/1999/xlink"
 xmlns:xodm="http://www.corel.com/coreldraw/odm/2003">
 <defs>
  <style type="text/css">
   <![CDATA[
    .fil3 {fill:#114D81;fill-rule:nonzero}
    .fil2 {fill:#134C81;fill-rule:nonzero}
    .fil9 {fill:#F6A316;fill-rule:nonzero}
    .fil7 {fill:white;fill-rule:nonzero}
    .fil1 {fill:url(#id0)}
    .fil5 {fill:url(#id1)}
    .fil8 {fill:url(#id2)}
    .fil6 {fill:url(#id3)}
    .fil4 {fill:url(#id4)}
    .fil0 {fill:url(#id5)}
   ]]>
  </style>
  <radialGradient id="id0" gradientUnits="userSpaceOnUse" gradientTransform="matrix(1.17827 0.789018 0.795081 -1.00348 164 -6177)" cx="4654.52" cy="-1250" r="409.39" fx="4654.52" fy="-1250">
   <stop offset="0" style="stop-opacity:1; stop-color:#3F89C9"/>
   <stop offset="1" style="stop-opacity:1; stop-color:#083955"/>
  </radialGradient>
  <radialGradient id="id1" gradientUnits="userSpaceOnUse" gradientTransform="matrix(0.569582 0.42017 0.384347 -0.534377 -571 3132)" cx="657.69" cy="2221.6" r="317.53" fx="657.69" fy="2221.6">
   <stop offset="0" style="stop-opacity:1; stop-color:#3F89C9"/>
   <stop offset="1" style="stop-opacity:1; stop-color:#114C81"/>
  </radialGradient>
  <radialGradient id="id2" gradientUnits="userSpaceOnUse" gradientTransform="matrix(0.919532 -0 -0 -0.919523 55 2793)" xlink:href="#id1" cx="681.33" cy="1455.28" r="967.59" fx="681.33" fy="1455.28">
  </radialGradient>
  <radialGradient id="id3" gradientUnits="userSpaceOnUse" gradientTransform="matrix(-0.107514 0.882776 0.871699 0.10888 -781 947)" xlink:href="#id1" cx="593.44" cy="1650.44" r="1595.85" fx="593.44" fy="1650.44">
  </radialGradient>
  <radialGradient id="id4" gradientUnits="userSpaceOnUse" gradientTransform="matrix(0.569425 0.331255 0.384259 -0.421313 -582 2990)" xlink:href="#id1" cx="663.41" cy="2258.5" r="194.64" fx="663.41" fy="2258.5">
  </radialGradient>
  <radialGradient id="id5" gradientUnits="userSpaceOnUse" gradientTransform="matrix(1.17573 0.837877 0.793369 -1.06562 1148 -9144)" xlink:href="#id0" cx="4751.74" cy="-2499.35" r="582.85" fx="4751.74" fy="-2499.35">
  </radialGradient>
 </defs>
<symbol id="Fm0-33-0" viewBox="3774.06 -3316.37 1880.16 1738.35">
 <path class="fil0" d="M3886.51 -2103.61c-221.09,-413.25 -101.64,-881.59 231.22,-1173.57 55.26,-48.47 120.19,-58.65 150.5,7.87 0.19,0.43 0.37,0.85 0.58,1.26 250.86,549.53 742.61,889.03 1288.18,941.69 71.08,6.85 116.15,80.53 89.43,146.72 -81.78,202.61 -231.42,378.01 -437.85,488.33 -473.07,252.82 -1064.99,68.2 -1322.07,-412.32z"/>
</symbol>
<symbol id="Fm1-35-0" viewBox="4014.84 -1796.97 1279.35 1189.06">
 <path class="fil1" d="M4372.28 -688.79c-198.87,-127.89 -196.87,-453.86 -229.56,-733.82 -13.48,-115.46 -151.13,-225.85 -124.46,-306.93 15.17,-46.13 18.21,-87.56 60.29,-56.85 0.26,0.18 0.53,0.39 0.79,0.58 347.96,253.44 716.64,299.1 1059,163.31 44.6,-17.7 143.83,20.3 152.01,68.33 25.04,146.94 -80.9,274.44 -82.3,428.06 -3.94,429.59 -509.17,647.36 -835.78,437.32z"/>
</symbol>
 <g id="Camada_x0020_2">
  <metadata id="CorelCorpID_0Corel-Layer"/>
  <g id="_1364127363808">
   <path class="fil2" d="M1077.39 2271.45l0.05 -2.43c1.28,-0.74 3.48,-1.36 6.5,-1.93 3.02,-0.51 5.11,-1.08 6.29,-1.64 1.13,-0.57 2.05,-1.3 2.81,-2.21 0.56,-2.89 0.82,-8.04 0.82,-15.52l-1.23 -75.88 0.26 -12.57c0,-2.61 -0.41,-4.42 -1.28,-5.38 -0.87,-0.96 -3.07,-1.87 -6.65,-2.72 -3.58,-0.79 -5.67,-1.47 -6.34,-1.98 -0.67,-0.51 -0.97,-1.02 -0.97,-1.64 0,-0.28 0.1,-0.74 0.26,-1.24 0.77,-0.51 1.54,-0.79 2.35,-0.79 0.87,0 2.71,0.06 5.42,0.17l2.46 0c0.81,0 3.12,-0.06 6.95,-0.17l12.22 0 25.31 -0.51 26.74 -1.13 2.41 0 3.78 -0.11c1.07,0 2,0.34 2.81,0.96 0.36,1.08 0.56,1.81 0.61,2.27l-0.1 3.91 0.82 17.44c0,0.74 -0.05,1.64 -0.2,2.72 -0.92,0.45 -1.79,0.68 -2.56,0.68 -0.51,0 -0.92,-0.17 -1.23,-0.56 -0.46,-0.74 -0.72,-2.1 -0.87,-4.08 -0.26,-2.78 -1.13,-6.4 -2.71,-10.82 -0.77,-2.09 -2.05,-3.57 -3.79,-4.3 -3.53,-1.53 -9.46,-2.26 -17.8,-2.26 -3.94,0 -7.62,0.11 -11.05,0.34 -3.43,0.23 -5.47,0.34 -6.24,0.34l-6.85 -0.11c-2.81,0 -5.17,0.45 -6.96,1.41 -1.28,0.57 -1.89,1.98 -1.89,4.19l0 1.41c0.2,3.34 0.31,7.02 0.31,11.04l-0.31 26.56c0,2.61 0.2,5.1 0.56,7.42l2.56 0.17 4.91 -0.28 16.83 0c6.75,0 11.45,-0.51 14.11,-1.59 1.79,-0.74 3.07,-1.81 3.94,-3.23 0.31,-0.45 1.02,-3 2.2,-7.7l1.18 -8.1c0.67,-0.4 1.23,-0.57 1.59,-0.57 0.26,0 0.72,0.17 1.38,0.51 0.26,1.47 0.41,3.74 0.46,6.8l1.07 35.9c-1.02,0.45 -1.79,0.68 -2.3,0.68l-0.97 -0.17c-0.97,-6.51 -2.41,-11.67 -4.4,-15.34 -0.72,-1.3 -1.54,-2.04 -2.4,-2.21 -1.54,-0.39 -8.54,-0.62 -20.97,-0.62 -3.83,0 -6.5,0.06 -7.98,0.11 -3.53,0.17 -5.68,0.28 -6.34,0.28l-0.92 0c-1.74,0 -3.02,0.28 -3.78,0.79 -0.26,0.8 -0.36,1.36 -0.36,1.65l0 6.74c0,0.79 0.05,4.02 0.1,9.74l-0.15 32.33c0,0.91 0.2,2.04 0.66,3.4 1.28,1.08 3.53,1.81 6.8,2.15 3.22,0.4 6.29,1.24 9.15,2.61 1.64,0.85 2.46,1.81 2.46,2.83 0,0.45 -0.1,0.91 -0.31,1.3 -0.26,0.39 -0.67,0.68 -1.28,0.85 -4.81,-1.07 -11.46,-1.64 -20,-1.64 -4.5,0 -9.26,0.45 -14.32,1.36 -3.48,0.57 -7.46,0.85 -11.92,0.85l-1.74 -0.45zm95.72 -40.66c0,-4.47 0.82,-9.23 2.51,-14.27 1.69,-5.04 4.19,-9.52 7.62,-13.54 3.43,-3.96 7.01,-6.91 10.84,-8.89 5.32,-2.72 11.81,-4.08 19.54,-4.08 11,0 20.15,4.13 27.56,12.46 7.37,8.32 11.05,18.35 11.05,30.07 0,10.37 -3.83,19.65 -11.56,27.81 -7.72,8.21 -17.54,12.29 -29.35,12.29 -7.26,0 -14.12,-2.09 -20.61,-6.34 -4.81,-3.23 -8.95,-7.93 -12.38,-14.21 -3.48,-6.23 -5.22,-13.31 -5.22,-21.3zm38.92 38c4.45,0 8.8,-1.36 12.94,-4.02 4.14,-2.66 7.41,-6.91 9.92,-12.8 2.45,-5.89 3.68,-12.69 3.68,-20.44 0,-5.04 -0.97,-10.93 -2.86,-17.67 -1.89,-6.69 -4.86,-11.72 -8.8,-15.06 -3.99,-3.34 -8.64,-4.98 -14.01,-4.98 -3.83,0 -7.77,1.02 -11.81,3 -4.04,1.98 -7.41,5.89 -10.22,11.61 -2.81,5.72 -4.19,13.87 -4.19,24.41 0,11.84 2.4,20.78 7.26,26.84 4.86,6.06 10.89,9.12 18.1,9.12zm50.32 1.47l-0.36 -1.24c0,-0.45 0.26,-1.13 0.77,-2.04l5.22 -1.19 7.31 -1.47c0.56,-0.34 0.97,-0.8 1.23,-1.36 0.36,-0.85 0.51,-3.34 0.51,-7.53 0,-22.09 -0.1,-34.83 -0.31,-38.28 -0.26,-3.4 -0.76,-5.55 -1.58,-6.46 -0.87,-0.91 -2.97,-1.64 -6.39,-2.15 -2,-0.34 -3.58,-0.8 -4.76,-1.3l0.36 -2.89c6.19,-2.77 10.33,-5.21 12.43,-7.25 2.92,-2.89 5.42,-6.74 7.52,-11.5l2.96 0.11c0.36,3.23 0.51,10.48 0.51,21.63l-0.05 1.64c0,0.4 0.05,1.02 0.15,1.87 2.25,-4.48 5.06,-8.61 8.39,-12.4l2 -2.21c0.87,-1.07 1.63,-1.87 2.41,-2.43 4.14,-2.78 7.16,-4.13 9.15,-4.13 2.61,0 4.71,0.96 6.34,2.89 1.64,1.93 2.45,4.31 2.45,7.08 0,2.2 -0.56,3.96 -1.74,5.15 -1.59,1.64 -3.43,2.43 -5.47,2.43 -0.92,0 -2.76,-0.57 -5.52,-1.64 -2.76,-1.07 -4.6,-1.64 -5.47,-1.64 -1.64,0 -2.76,0.28 -3.43,0.85 -1.69,1.41 -3.68,4.36 -6.03,8.78 -1.79,3.34 -2.71,6.4 -2.71,9.17l0.46 16.14 0.15 19.31c0.15,2.21 0.41,3.63 0.72,4.25 0.26,0.45 0.81,1.02 1.74,1.7 6.34,0.56 10.13,0.96 11.3,1.24 0.82,0.06 1.43,0.11 1.84,0.17 2.5,0.06 4.29,0.45 5.26,1.19 0.57,0.34 0.82,0.85 0.82,1.47 0,0.4 -0.26,0.91 -0.72,1.59l-9.77 -0.11 -3.68 -0.11 -5.42 0.11 -8.95 0 -4.86 0.28 -14.78 0.28zm66.87 -3.68c0.92,-0.74 2.2,-1.19 3.89,-1.47 2.35,-0.34 4.14,-0.85 5.42,-1.59 1.07,-0.96 1.79,-2.38 2.15,-4.19 0.41,-2.32 0.62,-10.59 0.62,-24.69 0,-13.82 -0.41,-22.77 -1.18,-26.79 -1.28,-0.91 -2.92,-1.64 -5.01,-2.15 -0.67,-0.17 -2,-0.51 -4.04,-1.07l0 -3.23c3.48,-1.07 6.29,-2.55 8.44,-4.3 2.09,-1.76 5.06,-5.26 8.9,-10.53l0.56 0c0.36,0 0.87,-0.06 1.63,-0.11 0.46,0.06 0.87,0.23 1.18,0.51l-0.1 11.1c0,2.32 0.05,4.76 0.2,7.36 6.29,-6.28 11.92,-10.76 16.88,-13.3 3.43,-1.65 7.26,-2.5 11.56,-2.5 5.11,0 9.15,1.08 12.17,3.17 3.02,2.15 5.83,6 8.54,11.61 5.22,-5.72 9.97,-9.69 14.22,-12.01 4.24,-2.26 8.54,-3.4 12.89,-3.4 6.59,0 11.96,2.38 16.21,7.14 4.2,4.81 6.34,11.83 6.44,21.18l0 8.1 0.1 8.89 -0.1 22.82c-0.05,2.66 0.46,4.65 1.59,6 0.46,0.22 2.25,0.79 5.37,1.76 1.94,0.62 3.12,1.07 3.48,1.36 0.36,0.34 0.51,0.79 0.51,1.41 0,0.74 -0.2,1.53 -0.56,2.49l-0.61 0 -8.9 -0.57c-1.07,-0.06 -2.71,-0.11 -5.01,-0.11 -2.81,0 -6.75,0.11 -11.81,0.39l-4.5 0c-0.66,0 -1.89,0.06 -3.78,0.11 -0.05,-0.62 -0.05,-1.13 -0.05,-1.58 0,-0.51 0.2,-1.13 0.61,-1.93 1.59,-0.79 3.73,-1.41 6.5,-1.93 2.76,-0.51 4.5,-1.36 5.17,-2.66 0.66,-1.24 1.02,-6.28 1.02,-15.12 0,-19.2 -0.2,-30.3 -0.62,-33.35 -0.71,-4.87 -2.56,-8.72 -5.57,-11.5 -3.02,-2.78 -6.85,-4.13 -11.46,-4.13 -3.53,0 -6.96,1.02 -10.28,3.06 -3.37,2.1 -6.65,5.15 -9.87,9.23l-0.1 2.38 0 14.89 -0.36 11.61c0,11.83 0.1,18.57 0.31,20.22 0.2,1.64 0.72,2.78 1.54,3.51 0.77,0.74 3.07,1.41 6.9,2.04 1.69,0.28 3.02,0.51 3.94,0.8 0.71,0.62 1.07,1.47 1.07,2.55 0,0.85 -0.26,1.42 -0.82,1.76l-1.48 0 -4.4 -0.11 -25.62 0 -7.06 0.11c-0.16,-0.96 -0.21,-1.7 -0.21,-2.15l0.1 -1.19c1.28,-0.79 3.69,-1.53 7.21,-2.26 1.84,-0.28 3.73,-0.85 5.68,-1.64 0.36,-0.34 0.61,-0.74 0.77,-1.25 0.3,-0.91 0.51,-3.51 0.61,-7.81l0.46 -11.32 -0.2 -12.8 0.11 -7.08c0,-7.98 -1.49,-13.87 -4.4,-17.56 -2.91,-3.68 -6.65,-5.49 -11.09,-5.49 -4.15,0 -8.34,1.13 -12.53,3.4 -4.24,2.32 -7.72,5.38 -10.48,9.17 -0.05,1.87 -0.05,3.51 -0.05,4.98l0.31 32.79c0.05,7.13 0.46,11.21 1.13,12.23 0.67,1.02 2.2,1.7 4.55,2.09 3.73,0.62 6.19,1.3 7.31,2.15 0.51,0.39 0.77,0.96 0.77,1.75 0,0.51 -0.05,1.13 -0.1,1.87 -6.7,-0.51 -11.15,-0.79 -13.45,-0.79 -2.35,0 -4.45,0.06 -6.34,0.11l-4.4 0.28 -2.76 0 -9.87 0.4c-0.1,-0.45 -0.15,-0.85 -0.15,-1.19 0,-0.28 0.1,-0.96 0.36,-1.93zm207.17 -9.85c0.36,0.85 0.56,1.42 0.56,1.81 0,0.96 -0.71,2.72 -2.15,5.21 -1.79,3.23 -3.83,5.61 -6.04,7.13 -1.43,0.96 -3.37,1.42 -5.83,1.42 -4.24,0 -7.41,-1.42 -9.51,-4.25 -1.28,-1.7 -2.2,-4.76 -2.76,-9.12l-9.82 7.65c-3.48,2.21 -6.14,3.57 -7.98,4.19 -2.92,0.85 -6.44,1.25 -10.54,1.25 -3.02,0 -5.37,-1.02 -7.11,-3 -1.74,-1.98 -2.61,-4.53 -2.61,-7.65 0,-4.48 2.51,-9.8 7.47,-16.08 4.96,-6.23 11.66,-11.33 20.2,-15.29 5.98,-2.77 9.67,-4.59 11.05,-5.38 0.1,-2.15 0.15,-4.48 0.15,-7.02 0,-8.27 -1.02,-13.87 -3.12,-16.82 -2.09,-2.89 -5.06,-4.36 -8.95,-4.36 -4.04,0 -7.82,1.76 -11.35,5.26 -2.2,2.21 -3.83,6.4 -4.96,12.52 -0.36,1.64 -1.02,3.46 -2,5.44 -2.51,1.81 -4.55,2.72 -6.09,2.72 -1.28,0 -2.46,-0.4 -3.53,-1.25 -0.56,-0.45 -0.87,-0.96 -0.87,-1.59 0,-1.64 1.64,-5.49 4.91,-11.44 3.22,-5.95 7.36,-10.42 12.32,-13.37 4.96,-2.94 9.26,-4.42 12.99,-4.42 5.06,0 8.8,0.51 11.25,1.47 2.45,1.02 4.65,2.78 6.54,5.32 1.89,2.55 3.02,5.32 3.43,8.32 0.26,1.42 0.36,6.52 0.36,15.29l-0.31 15.52 0.11 11.33c0,1.47 -0.06,2.72 -0.11,3.8 -0.05,1.87 -0.05,3.28 -0.05,4.19 0,2.15 0.56,3.85 1.64,5.15 1.13,1.3 2.46,1.98 3.99,1.98 2.2,0 4.15,-1.25 5.73,-3.74l1.07 -1.53c0.26,-0.17 0.92,-0.4 1.89,-0.68zm-25.87 -2.83c0.41,-8.27 0.61,-14.1 0.61,-17.5 0,-1.76 -0.1,-4.08 -0.26,-7.08 -3.94,1.53 -8.13,3.91 -12.53,7.08 -4.4,3.23 -7.87,6.91 -10.48,11.04 -1.89,3 -2.81,5.83 -2.81,8.5 0,2.55 0.77,4.65 2.35,6.34 1.54,1.7 3.48,2.55 5.83,2.55 1.84,0 4.04,-0.74 6.65,-2.15 3.37,-1.87 6.91,-4.81 10.64,-8.78zm97.93 -1.76l0.1 6.34c-4.55,5.38 -9.1,9.17 -13.55,11.27 -4.45,2.15 -9.72,3.23 -15.8,3.23 -6.55,0 -12.48,-1.93 -17.74,-5.72 -5.32,-3.8 -9.41,-9.18 -12.22,-16.14 -2.87,-6.97 -4.3,-13.76 -4.3,-20.44 0,-7.36 1.74,-14.33 5.17,-20.84 3.43,-6.51 7.98,-11.44 13.65,-14.67 5.68,-3.23 12.79,-4.81 21.38,-4.81 8.23,0 14.47,1.58 18.77,4.7 2.4,1.81 3.58,4.13 3.58,7.02 0,2.09 -0.61,3.8 -1.84,5.15 -1.23,1.41 -2.81,2.09 -4.76,2.09 -2.91,0 -6.13,-2.04 -9.67,-6.06 -2.2,-2.49 -4.14,-4.19 -5.88,-5.15 -1.79,-0.96 -3.74,-1.41 -5.93,-1.41 -5.22,0 -9.56,2.38 -13.04,7.13 -4.8,6.74 -7.21,15.23 -7.21,25.48 0,10.54 2.45,18.92 7.41,25.15 4.91,6.23 10.64,9.34 17.24,9.34 4.55,0 8.64,-0.85 12.22,-2.49 3.53,-1.64 7.67,-4.7 12.43,-9.17zm-33.55 34.89c0.56,-1.02 1.64,-2.55 3.17,-4.65 2.2,-3.11 5.06,-7.7 8.54,-13.76l3.02 0 -6.91 12.17c4.6,3.91 6.91,8.5 6.91,13.65 0,5.04 -1.54,9.23 -4.55,12.57 -3.02,3.34 -6.7,4.98 -11.05,4.98 -3.12,0 -5.68,-0.91 -7.67,-2.78 -2.04,-1.87 -3.07,-3.62 -3.07,-5.38 0,-1.3 0.41,-2.55 1.23,-3.63 0.56,-0.79 1.28,-1.19 2.1,-1.19 1.28,0 2.86,1.42 4.7,4.19 1.79,2.78 3.68,4.19 5.62,4.19 1.59,0 3.02,-0.85 4.3,-2.49 1.28,-1.7 1.94,-3.91 1.94,-6.63 0,-2.43 -0.67,-4.59 -2.05,-6.57 -1.38,-1.98 -3.48,-3.57 -6.24,-4.7zm109.9 -30.3c0.35,0.85 0.56,1.42 0.56,1.81 0,0.96 -0.71,2.72 -2.15,5.21 -1.79,3.23 -3.84,5.61 -6.04,7.13 -1.43,0.96 -3.37,1.42 -5.83,1.42 -4.24,0 -7.41,-1.42 -9.51,-4.25 -1.28,-1.7 -2.2,-4.76 -2.76,-9.12l-9.82 7.65c-3.48,2.21 -6.14,3.57 -7.98,4.19 -2.91,0.85 -6.44,1.25 -10.54,1.25 -3.02,0 -5.37,-1.02 -7.11,-3 -1.74,-1.98 -2.61,-4.53 -2.61,-7.65 0,-4.48 2.51,-9.8 7.47,-16.08 4.96,-6.23 11.66,-11.33 20.2,-15.29 5.98,-2.77 9.67,-4.59 11.05,-5.38 0.1,-2.15 0.15,-4.48 0.15,-7.02 0,-8.27 -1.02,-13.87 -3.12,-16.82 -2.1,-2.89 -5.06,-4.36 -8.95,-4.36 -4.04,0 -7.82,1.76 -11.35,5.26 -2.2,2.21 -3.83,6.4 -4.96,12.52 -0.36,1.64 -1.03,3.46 -2,5.44 -2.51,1.81 -4.55,2.72 -6.09,2.72 -1.28,0 -2.46,-0.4 -3.53,-1.25 -0.56,-0.45 -0.87,-0.96 -0.87,-1.59 0,-1.64 1.64,-5.49 4.91,-11.44 3.22,-5.95 7.36,-10.42 12.32,-13.37 4.96,-2.94 9.26,-4.42 12.99,-4.42 5.06,0 8.8,0.51 11.25,1.47 2.46,1.02 4.65,2.78 6.55,5.32 1.89,2.55 3.02,5.32 3.43,8.32 0.26,1.42 0.36,6.52 0.36,15.29l-0.31 15.52 0.1 11.33c0,1.47 -0.05,2.72 -0.1,3.8 -0.05,1.87 -0.05,3.28 -0.05,4.19 0,2.15 0.56,3.85 1.64,5.15 1.13,1.3 2.46,1.98 3.99,1.98 2.2,0 4.14,-1.25 5.73,-3.74l1.07 -1.53c0.26,-0.17 0.92,-0.4 1.89,-0.68zm-25.88 -2.83c0.41,-8.27 0.61,-14.1 0.61,-17.5 0,-1.76 -0.1,-4.08 -0.26,-7.08 -3.94,1.53 -8.13,3.91 -12.53,7.08 -4.4,3.23 -7.87,6.91 -10.48,11.04 -1.89,3 -2.81,5.83 -2.81,8.5 0,2.55 0.77,4.65 2.35,6.34 1.54,1.7 3.48,2.55 5.83,2.55 1.84,0 4.04,-0.74 6.65,-2.15 3.37,-1.87 6.91,-4.81 10.64,-8.78zm13.4 -104.59l2.56 0c0.05,0.74 0.1,1.25 0.1,1.59 0,5.61 -1.38,10.02 -4.19,13.37 -2.81,3.34 -6.24,4.98 -10.38,4.98 -2.04,0 -4.19,-0.51 -6.49,-1.47 -1.54,-0.62 -3.89,-2.15 -7.11,-4.59 -3.22,-2.43 -5.52,-3.91 -6.8,-4.42 -1.84,-0.85 -3.48,-1.24 -4.96,-1.24 -2,0 -3.63,0.79 -4.96,2.32 -1.33,1.58 -2.3,4.64 -2.97,9.17l-2.45 0c-0.15,-0.4 -0.2,-0.74 -0.2,-1.07 0,-4.36 1.23,-8.55 3.63,-12.57 2.4,-4.02 6.09,-6.06 11,-6.06 2.09,0 4.04,0.4 5.88,1.19 1.84,0.8 4.5,2.44 7.98,4.98 5.22,3.8 9.1,5.66 11.61,5.66 1.84,0 3.48,-0.79 4.86,-2.43 1.38,-1.64 2.35,-4.76 2.91,-9.4zm20.61 81.49c0,-4.47 0.82,-9.23 2.51,-14.27 1.69,-5.04 4.19,-9.52 7.62,-13.54 3.43,-3.96 7,-6.91 10.84,-8.89 5.32,-2.72 11.81,-4.08 19.54,-4.08 10.99,0 20.15,4.13 27.56,12.46 7.36,8.32 11.05,18.35 11.05,30.07 0,10.37 -3.83,19.65 -11.56,27.81 -7.72,8.21 -17.54,12.29 -29.35,12.29 -7.26,0 -14.11,-2.09 -20.61,-6.34 -4.81,-3.23 -8.95,-7.93 -12.37,-14.21 -3.48,-6.23 -5.22,-13.31 -5.22,-21.3zm38.92 38c4.45,0 8.8,-1.36 12.94,-4.02 4.14,-2.66 7.42,-6.91 9.92,-12.8 2.46,-5.89 3.69,-12.69 3.69,-20.44 0,-5.04 -0.97,-10.93 -2.87,-17.67 -1.89,-6.69 -4.86,-11.72 -8.8,-15.06 -3.99,-3.34 -8.65,-4.98 -14.01,-4.98 -3.83,0 -7.78,1.02 -11.81,3 -4.04,1.98 -7.41,5.89 -10.23,11.61 -2.81,5.72 -4.19,13.87 -4.19,24.41 0,11.84 2.41,20.78 7.26,26.84 4.85,6.06 10.89,9.12 18.1,9.12zm131.07 -68.24c-5.52,-7.81 -9.05,-13.59 -10.58,-17.33 -1.59,-3.68 -2.35,-7.19 -2.35,-10.48 0,-5.72 2.15,-10.76 6.44,-15.06 4.3,-4.25 10.38,-6.4 18.31,-6.4 7.31,0 12.99,2.09 17.03,6.23 4.04,4.13 6.04,9.34 6.04,15.52 0,5.83 -1.33,10.7 -4.04,14.61 -2.71,3.91 -7.16,7.42 -13.4,10.42 2.09,3.23 5.37,7.64 9.87,13.31 1.53,1.87 2.66,3.4 3.43,4.47l15.09 20.78c4.96,-6.23 8.64,-11.89 11.05,-17.05 2.4,-5.09 3.58,-9 3.58,-11.72 0,-1.87 -0.56,-3.51 -1.64,-4.93 -1.07,-1.36 -2.96,-2.44 -5.57,-3.17 -0.26,-0.62 -0.35,-1.13 -0.35,-1.47l0.15 -0.91 10.13 -1.07c2.1,-0.28 5.01,-0.51 8.75,-0.68 3.73,-0.11 8.95,-0.45 15.65,-1.07l0.2 1.19c0,0.4 -0.1,0.91 -0.35,1.64 -4.15,1.98 -7.62,4.19 -10.54,6.68 -2.92,2.55 -7.31,7.59 -13.19,15.24 -5.88,7.65 -10.94,14.72 -15.19,21.12 7.42,9.91 12.69,15.97 15.7,18.18 3.02,2.26 6.29,3.4 9.72,3.4 3.83,0 7.16,-1.24 9.97,-3.8 1.89,-1.64 3.22,-2.43 4.04,-2.43 0.31,0 0.82,0.11 1.54,0.34 -1.28,6.12 -2.5,9.69 -3.63,10.65 -4.45,4.13 -9.36,6.17 -14.73,6.17 -3.28,0 -6.34,-0.57 -9.16,-1.7 -2.86,-1.19 -5.83,-2.94 -8.9,-5.33 -1.74,-1.41 -4.7,-4.41 -8.9,-8.89 -2.61,-2.89 -4.35,-4.7 -5.17,-5.49 -4.7,5.21 -8.18,8.78 -10.48,10.65 -4.04,3.34 -8.49,5.94 -13.24,7.81 -4.81,1.87 -10.28,2.83 -16.46,2.83 -7.57,0 -13.86,-1.76 -18.87,-5.26 -5.06,-3.51 -8.69,-8.04 -10.94,-13.65 -2.25,-5.61 -3.37,-10.93 -3.37,-16.02 0,-3.91 0.67,-7.65 1.94,-11.27 1.28,-3.57 3.02,-6.68 5.11,-9.23 2.09,-2.55 4.96,-5.21 8.54,-7.98 1.23,-0.91 4.24,-2.67 9.05,-5.33 3.02,-1.64 6.24,-2.83 9.77,-3.51zm14.22 -6.17c3.28,-1.53 5.83,-4.19 7.72,-7.93 1.89,-3.68 2.81,-7.65 2.81,-11.78 0,-6.17 -1.28,-10.93 -3.83,-14.21 -2.61,-3.28 -5.88,-4.93 -9.87,-4.93 -3.63,0 -6.55,1.19 -8.74,3.57 -2.2,2.38 -3.33,5.21 -3.33,8.55 0,3.45 1.18,7.19 3.48,11.32 3.37,5.72 7.31,10.82 11.76,15.41zm22.35 53.57l-0.72 -1.08 -0.26 -0.39 -19.64 -25.94c-2.4,-3.34 -6.91,-8.95 -13.4,-16.87 -7.31,3.06 -12.89,7.42 -16.67,13.02 -3.78,5.67 -5.68,11.67 -5.68,17.95 0,1.76 0.51,4.24 1.48,7.42 0.97,3.23 2.71,6.34 5.22,9.34 2.51,3 5.73,5.38 9.61,7.08 3.83,1.7 8.28,2.55 13.24,2.55 5.78,0 11,-1.24 15.65,-3.79 4.65,-2.49 8.39,-5.61 11.15,-9.29zm205.17 -97.35c0.72,4.98 1.07,10.14 1.07,15.41 0,1.02 -0.05,2.43 -0.1,4.19 -0.82,0.17 -1.43,0.28 -1.84,0.28 -0.36,0 -0.82,-0.06 -1.48,-0.17 -2.5,-7.65 -6.49,-13.48 -12.07,-17.61 -5.57,-4.07 -12.48,-6.11 -20.71,-6.11 -4.35,0 -8.03,0.57 -11,1.64 -5.26,2.04 -9.92,4.81 -13.91,8.32 -4.04,3.57 -7.41,7.76 -10.18,12.69 -2.76,4.93 -4.96,10.93 -6.54,17.9 -1.59,6.96 -2.41,14.1 -2.41,21.41 0,13.87 1.89,25.37 5.73,34.43 3.83,9.12 9.05,15.57 15.7,19.43 6.6,3.91 13.3,5.83 20.05,5.83l4.14 -0.11c4.7,-0.62 7.93,-1.24 9.61,-1.81 4.24,-1.41 7.77,-3 10.59,-4.87 2.81,-1.87 5.52,-4.47 8.23,-7.87 2.66,-3.34 4.91,-7.3 6.8,-11.78l1.07 -0.4c0.26,0 0.72,0.23 1.28,0.62 -0.05,1.53 -0.1,2.55 -0.15,3 -2.45,10.98 -4.24,18.52 -5.37,22.54 -0.97,0.28 -2.15,0.68 -3.53,1.19 -6.9,2.6 -16.06,3.91 -27.56,3.91 -9.26,0 -16.21,-0.68 -20.81,-2.09 -4.65,-1.42 -9.67,-3.62 -15.09,-6.57 -5.42,-2.95 -10.18,-6.85 -14.32,-11.78 -4.14,-4.87 -7.47,-11.04 -9.97,-18.46 -2.51,-7.42 -3.78,-15.57 -3.78,-24.35 0,-8.33 1.02,-15.57 3.02,-21.8 2,-6.17 5.06,-12.46 9.26,-18.86 4.14,-6.4 9.05,-11.67 14.73,-15.91 5.68,-4.25 11.97,-7.19 18.92,-8.95 4.86,-1.19 11.76,-1.75 20.71,-1.75 6.5,0 12.63,0.96 18.41,2.83 5.73,1.93 9.56,3.8 11.51,5.66zm16.67 80.19c0,-4.47 0.82,-9.23 2.5,-14.27 1.69,-5.04 4.19,-9.52 7.62,-13.54 3.43,-3.96 7,-6.91 10.84,-8.89 5.32,-2.72 11.81,-4.08 19.54,-4.08 11,0 20.15,4.13 27.57,12.46 7.36,8.32 11.05,18.35 11.05,30.07 0,10.37 -3.84,19.65 -11.56,27.81 -7.72,8.21 -17.54,12.29 -29.35,12.29 -7.26,0 -14.11,-2.09 -20.61,-6.34 -4.81,-3.23 -8.95,-7.93 -12.37,-14.21 -3.48,-6.23 -5.22,-13.31 -5.22,-21.3zm38.92 38c4.45,0 8.8,-1.36 12.94,-4.02 4.15,-2.66 7.42,-6.91 9.92,-12.8 2.46,-5.89 3.68,-12.69 3.68,-20.44 0,-5.04 -0.97,-10.93 -2.86,-17.67 -1.89,-6.69 -4.86,-11.72 -8.8,-15.06 -3.99,-3.34 -8.64,-4.98 -14.01,-4.98 -3.84,0 -7.78,1.02 -11.81,3 -4.04,1.98 -7.41,5.89 -10.23,11.61 -2.81,5.72 -4.19,13.87 -4.19,24.41 0,11.84 2.4,20.78 7.26,26.84 4.86,6.06 10.89,9.12 18.11,9.12zm50.02 -1.93c1.48,-0.45 3.22,-0.85 5.11,-1.19 3.73,-0.57 5.93,-1.25 6.7,-2.04 0.72,-0.79 1.07,-2.61 1.07,-5.38l0.15 -3.51c0.05,-1.3 0.1,-2.94 0.1,-4.98l-0.15 -29.9c0,-4.02 -0.46,-6.63 -1.43,-7.81 -1.58,-1.81 -4.5,-3.06 -8.8,-3.79l0 -3.51c4.3,-1.3 7.57,-3 9.87,-5.09 3.33,-2.89 6.14,-6.85 8.44,-11.89l3.02 0.11c0.15,3.06 0.26,5.21 0.26,6.51l0 6.45 0.1 1.76c0.67,-0.51 1.48,-1.19 2.45,-1.98 3.53,-2.89 7.11,-5.27 10.84,-7.13 3.68,-1.87 6.96,-3.11 9.87,-3.85 1.79,-0.51 3.83,-0.79 6.14,-0.79 4.81,0 8.95,1.42 12.43,4.25 3.48,2.89 5.73,6.23 6.75,10.08 1.02,3.91 1.54,11.61 1.54,23.11l0 14.72c0,0.39 -0.05,1.7 -0.11,3.91 -0.1,2.21 -0.15,4.76 -0.15,7.65 0,4.53 0.15,7.42 0.51,8.67 0.3,0.85 1.07,1.7 2.3,2.55 5.63,0.85 8.9,1.81 9.87,3l0 0.8c0,0.62 -0.15,1.47 -0.51,2.43l-1.69 0 -11.66 -0.11 -11.41 0.23c-4.24,0.11 -8.18,0.06 -11.76,-0.11l-0.51 -2.04c0,-0.39 0.2,-0.96 0.61,-1.58 1.58,-0.74 3.83,-1.25 6.7,-1.53 1.69,-0.17 2.87,-0.34 3.53,-0.62 0.67,-0.28 1.43,-0.79 2.35,-1.53 0.72,-1.59 1.07,-2.89 1.07,-3.91 0,-0.45 -0.06,-1.36 -0.15,-2.72 -0.15,-3 -0.31,-10.48 -0.36,-22.37l0 -5.04 0.15 -7.81c0,-8.38 -1.54,-14.16 -4.55,-17.39 -3.07,-3.17 -7.16,-4.76 -12.28,-4.76 -3.94,0 -7.77,0.96 -11.5,2.83 -3.79,1.93 -7.42,4.81 -10.94,8.67 -0.1,3.11 -0.15,5.78 -0.15,7.98l0.26 21.57c0,11.27 0.15,18.12 0.41,20.67 0.15,1.08 0.36,1.76 0.61,2.15 0.46,0.51 1.43,0.96 2.86,1.24 1.38,0.34 3.02,0.8 4.86,1.36 1.84,0.62 3.07,0.96 3.68,1.13 1.18,0.28 1.94,0.96 2.35,1.93l-0.1 1.93 -9.2 0 -19.07 -0.28c-4.4,0.17 -7.16,0.23 -8.34,0.23l-2.2 0 -0.2 -1.3c0,-0.45 0.1,-1.07 0.26,-1.93zm101.51 -21.69c2.2,6.17 3.83,10.19 4.91,12 2.25,3.74 4.91,6.63 8.03,8.67 3.12,2.04 6.49,3.06 10.12,3.06 3.33,0 6.65,-1.59 9.98,-4.76 2.35,-2.44 3.53,-5.21 3.53,-8.38 0,-4.25 -1.38,-8.15 -4.14,-11.72 -2.76,-3.51 -7.98,-6.91 -15.7,-10.13 -7.72,-3.23 -12.94,-6.63 -15.6,-10.25 -2.61,-3.68 -3.94,-7.81 -3.94,-12.51 0,-4.42 1.07,-8.33 3.27,-11.72 2.15,-3.34 5.11,-5.89 8.95,-7.65 3.83,-1.7 7.37,-2.55 10.59,-2.55 4.14,0 7.93,0.34 11.25,1.07 3.32,0.74 6.14,1.81 8.54,3.29 0.46,3.34 0.87,8.21 1.18,14.67l0.15 3.11c-0.77,0.06 -1.38,0.06 -1.94,0.06l-1.23 0c-1.74,-5.38 -4.39,-9.68 -8.03,-12.85 -3.63,-3.11 -7.21,-4.7 -10.74,-4.7 -3.53,0 -6.34,1.19 -8.54,3.57 -2.2,2.38 -3.28,5.5 -3.28,9.35 0,2.89 0.87,5.49 2.66,7.81 1.79,2.26 5.88,4.87 12.38,7.76 6.49,2.94 11.2,5.66 14.17,8.15 2.96,2.55 5.17,5.55 6.6,9.12 1.38,3.57 2.09,7.02 2.09,10.25 0,4.47 -1.33,8.67 -3.99,12.57 -2.71,3.91 -6.04,6.68 -10.07,8.27 -4.04,1.59 -7.62,2.38 -10.79,2.38 -7.41,0 -14.32,-1.53 -20.61,-4.59 -0.56,-0.51 -0.92,-1.53 -0.97,-2.94 0,-0.57 -0.05,-1.47 -0.15,-2.78 -0.97,-8.78 -1.43,-13.98 -1.43,-15.63 0,-0.79 0.15,-1.3 0.46,-1.58 0.3,-0.28 1.07,-0.4 2.3,-0.4zm55.95 -51.76l6.59 0 2.92 0.17 2.3 -0.17c6.04,0 9.77,0.06 11.25,0.17l0.1 1.87c0,9.17 -0.1,18.06 -0.36,26.62 -0.15,5.09 -0.26,7.98 -0.26,8.72 0,11.44 0.36,18.58 1.02,21.41 0.67,2.89 2.25,5.15 4.76,6.91 2.51,1.75 5.47,2.6 9,2.6 4.3,0 8.39,-1.02 12.33,-3 3.89,-1.98 7.21,-4.36 9.97,-7.25 0.31,-2.49 0.46,-5.21 0.46,-8.21 0,-9.68 0.1,-16.25 0.26,-19.59 0.05,-2.04 0.1,-3.8 0.1,-5.27 0,-10.53 -0.46,-16.48 -1.43,-17.89 -0.97,-1.36 -4.55,-2.38 -10.74,-3.11 -2.04,-0.22 -3.53,-0.45 -4.5,-0.68 -0.46,-0.85 -0.72,-1.47 -0.72,-1.93l0.26 -1.07c1.54,-0.17 3.02,-0.28 4.5,-0.28l14.01 0.17c4.96,-0.11 7.62,-0.17 7.93,-0.17 0.67,0 1.28,0.06 1.84,0.11l0.2 7.08c-0.41,9.91 -0.66,22.14 -0.71,36.7l-0.2 7.87 0.35 13.31c0.56,1.02 1.02,1.64 1.43,1.81 0.72,0.34 2.15,0.51 4.3,0.51l0.82 0c0.77,0 2.92,0.17 6.5,0.57 0.05,0.85 0.1,1.47 0.1,1.87l0 1.08c-7.88,1.87 -14.27,3.79 -19.13,5.66 -1.94,0.74 -3.58,1.25 -4.91,1.59 -0.31,-2.32 -0.46,-3.74 -0.46,-4.25l0 -7.87c0,-0.34 -0.05,-1.25 -0.1,-2.66 -0.77,0.62 -1.64,1.3 -2.61,2.15 -4.65,3.96 -9.56,7.31 -14.73,10.08 -3.48,1.87 -6.8,2.83 -10.02,2.83 -6.19,0 -11.2,-2.55 -15.09,-7.65 -3.94,-5.04 -5.88,-13.7 -5.88,-25.94 0,-0.62 0,-1.81 0.05,-3.51 0.26,-3.11 0.36,-5.32 0.36,-6.51 0,-0.45 0,-1.87 -0.06,-4.3 -0.05,-1.07 -0.1,-1.98 -0.1,-2.72 0,-0.62 0.05,-1.93 0.1,-3.96 0.06,-2.04 0.06,-3.51 0.06,-4.36 0,-1.07 0,-2.04 -0.06,-2.89l-0.2 -5.21 0.1 -2.72c0,-1.02 -0.46,-1.98 -1.43,-2.83 -3.69,-1.07 -6.09,-1.76 -7.21,-1.93 -1.18,-0.17 -2.2,-0.4 -3.07,-0.8l0 -3.11zm90.06 -44.28l0 -2.15c1.64,-0.63 3.43,-1.25 5.42,-1.87 2.92,-1.02 7.26,-2.61 13.04,-4.76l4.14 0c0.05,3.11 0.1,4.87 0.1,5.32 0,53.4 -0.15,85.28 -0.46,95.53 -0.15,6.06 -0.26,9.23 -0.26,9.63 0,7.3 0.26,11.38 0.82,12.23 0.67,1.19 2.81,1.98 6.44,2.44 3.63,0.45 5.73,0.91 6.39,1.36 0.46,0.28 0.72,0.74 0.72,1.36 0,0.74 -0.15,1.19 -0.41,1.47 -0.26,0.28 -0.76,0.45 -1.43,0.45 -0.41,0 -3.47,-0.11 -9.25,-0.28l-11.56 -0.39 -14.78 0.68c-0.97,0.06 -1.64,-0.11 -2.1,-0.57 -0.36,-0.34 -0.56,-0.79 -0.56,-1.36 0,-0.62 0.2,-1.13 0.61,-1.41 0.36,-0.28 2.51,-0.8 6.34,-1.53 3.83,-0.74 6.04,-1.3 6.59,-1.81 0.57,-0.45 0.92,-1.53 1.07,-3.23 0.26,-2.32 0.36,-8.94 0.36,-19.82l-0.1 -22.43 0.31 -23.22 -0.1 -23.22 0.25 -11.44c0,-2.27 -0.3,-3.91 -0.97,-4.93 -0.67,-0.96 -2.05,-1.98 -4.15,-2.94 -3.17,-1.41 -5.32,-2.49 -6.5,-3.11zm61.93 24.46l2.71 0.11 0.35 9.23 -0.2 12.01c1.13,0.06 1.84,0.11 2.15,0.11 1.54,0 4.45,-0.11 8.69,-0.39 2.76,-0.17 5.42,-0.28 7.93,-0.28 1.17,0 2.96,0.06 5.32,0.11 0.1,1.3 0.15,2.32 0.15,3.12 0,0.85 -0.15,2.15 -0.51,3.96l-1.48 0 -13.65 0.51 -6.8 0.22 -1.59 0.17c-0.46,1.64 -0.71,3.51 -0.71,5.66l0.26 14.61 -0.16 25.77c0,6.74 0.77,11.27 2.35,13.48 1.54,2.26 3.83,3.4 6.91,3.4 1.53,0 4.4,-0.51 8.64,-1.59 1.28,-0.28 2.96,-1.36 5.17,-3.17l0.82 0c0.51,0 0.92,0.17 1.28,0.51 0.3,0.4 0.46,0.85 0.46,1.42l-0.1 0.68c-2.5,3.06 -5.42,5.27 -8.64,6.69 -3.27,1.41 -7.62,2.09 -12.99,2.09 -3.83,0 -6.96,-0.96 -9.46,-2.94 -2.51,-1.93 -4.14,-4.25 -4.81,-6.91 -0.71,-2.66 -1.07,-8.44 -1.07,-17.44l0.36 -21.97 -0.1 -10.53 0 -3.91c0,-1.81 -0.05,-3.62 -0.15,-5.44l-1.54 -0.11 -7.21 0.28 -0.72 0.11c-0.67,0 -1.13,-0.17 -1.43,-0.51 -0.36,-0.28 -0.51,-0.68 -0.51,-1.13 0,-0.79 0.2,-1.41 0.67,-1.93 0.46,-0.51 1.79,-1.24 4.04,-2.26 1.54,-0.74 3.33,-2.09 5.32,-4.08 2,-1.98 3.73,-4.13 5.17,-6.57 0.67,-1.3 1.69,-3.8 2.97,-7.42 0.97,-2.66 1.69,-4.59 2.15,-5.66zm33.8 57.19c0,-4.47 0.82,-9.23 2.51,-14.27 1.69,-5.04 4.19,-9.52 7.62,-13.54 3.43,-3.96 7.01,-6.91 10.84,-8.89 5.32,-2.72 11.81,-4.08 19.54,-4.08 11,0 20.15,4.13 27.57,12.46 7.36,8.32 11.04,18.35 11.04,30.07 0,10.37 -3.83,19.65 -11.56,27.81 -7.72,8.21 -17.54,12.29 -29.35,12.29 -7.26,0 -14.11,-2.09 -20.61,-6.34 -4.81,-3.23 -8.95,-7.93 -12.38,-14.21 -3.48,-6.23 -5.22,-13.31 -5.22,-21.3zm38.92 38c4.45,0 8.8,-1.36 12.94,-4.02 4.14,-2.66 7.41,-6.91 9.92,-12.8 2.45,-5.89 3.68,-12.69 3.68,-20.44 0,-5.04 -0.97,-10.93 -2.87,-17.67 -1.89,-6.69 -4.85,-11.72 -8.8,-15.06 -3.99,-3.34 -8.64,-4.98 -14.01,-4.98 -3.83,0 -7.77,1.02 -11.81,3 -4.04,1.98 -7.42,5.89 -10.23,11.61 -2.81,5.72 -4.19,13.87 -4.19,24.41 0,11.84 2.4,20.78 7.26,26.84 4.86,6.06 10.89,9.12 18.1,9.12zm50.32 1.47l-0.36 -1.24c0,-0.45 0.26,-1.13 0.77,-2.04l5.22 -1.19 7.31 -1.47c0.56,-0.34 0.97,-0.8 1.22,-1.36 0.36,-0.85 0.51,-3.34 0.51,-7.53 0,-22.09 -0.1,-34.83 -0.31,-38.28 -0.25,-3.4 -0.76,-5.55 -1.58,-6.46 -0.87,-0.91 -2.97,-1.64 -6.39,-2.15 -2,-0.34 -3.58,-0.8 -4.76,-1.3l0.36 -2.89c6.19,-2.77 10.33,-5.21 12.43,-7.25 2.92,-2.89 5.42,-6.74 7.52,-11.5l2.96 0.11c0.36,3.23 0.51,10.48 0.51,21.63l-0.05 1.64c0,0.4 0.05,1.02 0.15,1.87 2.25,-4.48 5.06,-8.61 8.39,-12.4l2 -2.21c0.87,-1.07 1.63,-1.87 2.41,-2.43 4.14,-2.78 7.16,-4.13 9.15,-4.13 2.61,0 4.7,0.96 6.34,2.89 1.64,1.93 2.46,4.31 2.46,7.08 0,2.2 -0.56,3.96 -1.74,5.15 -1.59,1.64 -3.43,2.43 -5.47,2.43 -0.92,0 -2.76,-0.57 -5.52,-1.64 -2.76,-1.07 -4.6,-1.64 -5.47,-1.64 -1.64,0 -2.76,0.28 -3.43,0.85 -1.69,1.41 -3.68,4.36 -6.04,8.78 -1.79,3.34 -2.71,6.4 -2.71,9.17l0.46 16.14 0.15 19.31c0.15,2.21 0.41,3.63 0.71,4.25 0.26,0.45 0.82,1.02 1.74,1.7 6.34,0.56 10.12,0.96 11.3,1.24 0.82,0.06 1.43,0.11 1.84,0.17 2.5,0.06 4.3,0.45 5.27,1.19 0.56,0.34 0.82,0.85 0.82,1.47 0,0.4 -0.26,0.91 -0.72,1.59l-9.77 -0.11 -3.69 -0.11 -5.42 0.11 -8.95 0 -4.86 0.28 -14.78 0.28zm69.09 -120.17c0,-2.15 0.77,-4.02 2.25,-5.61 1.48,-1.53 3.27,-2.32 5.37,-2.32 2.2,0 4.09,0.85 5.78,2.6 1.64,1.76 2.46,3.69 2.46,5.72 0,1.98 -0.82,3.91 -2.46,5.67 -1.69,1.81 -3.58,2.72 -5.78,2.72 -2.15,0 -3.94,-0.79 -5.42,-2.43 -1.48,-1.65 -2.2,-3.74 -2.2,-6.34zm-7.42 50.51l0.11 -2.83c3.83,-1.19 5.88,-1.93 6.13,-2.15 2.1,-1.02 4.35,-2.6 6.65,-4.76 2.3,-2.15 4.3,-4.53 5.88,-7.19 0.67,-0.17 1.22,-0.22 1.69,-0.22l1.02 0.11c0.25,3.12 0.35,5.38 0.35,6.8 0,0.34 -0.05,1.81 -0.15,4.41l0 5.16 0.05 28.09 -0.25 29.79c-0.06,2.38 0.3,4.02 1.07,4.98 0.77,0.96 3.02,1.98 6.8,3.17 2.3,0.74 4.09,1.36 5.26,1.87 0.15,0.46 0.26,0.85 0.26,1.19 0,0.39 -0.15,0.85 -0.46,1.47 -2.3,-0.06 -5.22,-0.23 -8.8,-0.51 -4.86,-0.45 -8.08,-0.68 -9.67,-0.68 -0.76,0 -5.47,0.17 -14.11,0.51 -1.79,0.06 -3.48,0.17 -5.11,0.45 -0.26,0 -0.72,-0.11 -1.38,-0.28 -0.3,-0.45 -0.46,-0.85 -0.46,-1.19 0,-0.91 0.56,-1.64 1.69,-2.15 0.26,-0.11 3.22,-0.85 8.95,-2.21 1.89,-0.39 3.17,-1.07 3.73,-1.98 0.97,-1.36 1.48,-3.51 1.48,-6.51 0.15,-5.04 0.2,-18.74 0.2,-41.17 0,-4.47 -0.2,-7.31 -0.56,-8.38 -0.26,-0.79 -1.02,-1.7 -2.3,-2.72 -1.28,-0.96 -3.99,-1.98 -8.08,-3.06zm107.81 56.12c0.35,0.85 0.56,1.42 0.56,1.81 0,0.96 -0.71,2.72 -2.15,5.21 -1.79,3.23 -3.83,5.61 -6.03,7.13 -1.44,0.96 -3.38,1.42 -5.83,1.42 -4.24,0 -7.41,-1.42 -9.51,-4.25 -1.28,-1.7 -2.2,-4.76 -2.76,-9.12l-9.82 7.65c-3.48,2.21 -6.14,3.57 -7.98,4.19 -2.92,0.85 -6.44,1.25 -10.54,1.25 -3.02,0 -5.37,-1.02 -7.11,-3 -1.74,-1.98 -2.61,-4.53 -2.61,-7.65 0,-4.48 2.5,-9.8 7.46,-16.08 4.96,-6.23 11.66,-11.33 20.2,-15.29 5.98,-2.77 9.67,-4.59 11.05,-5.38 0.1,-2.15 0.15,-4.48 0.15,-7.02 0,-8.27 -1.02,-13.87 -3.12,-16.82 -2.09,-2.89 -5.06,-4.36 -8.95,-4.36 -4.04,0 -7.82,1.76 -11.35,5.26 -2.2,2.21 -3.83,6.4 -4.96,12.52 -0.36,1.64 -1.02,3.46 -2,5.44 -2.5,1.81 -4.55,2.72 -6.09,2.72 -1.28,0 -2.45,-0.4 -3.53,-1.25 -0.56,-0.45 -0.87,-0.96 -0.87,-1.59 0,-1.64 1.64,-5.49 4.91,-11.44 3.22,-5.95 7.36,-10.42 12.32,-13.37 4.96,-2.94 9.26,-4.42 12.99,-4.42 5.06,0 8.8,0.51 11.25,1.47 2.45,1.02 4.65,2.78 6.54,5.32 1.89,2.55 3.02,5.32 3.43,8.32 0.26,1.42 0.36,6.52 0.36,15.29l-0.31 15.52 0.11 11.33c0,1.47 -0.06,2.72 -0.11,3.8 -0.05,1.87 -0.05,3.28 -0.05,4.19 0,2.15 0.56,3.85 1.64,5.15 1.13,1.3 2.46,1.98 3.99,1.98 2.2,0 4.14,-1.25 5.72,-3.74l1.07 -1.53c0.26,-0.17 0.92,-0.4 1.89,-0.68zm-25.88 -2.83c0.41,-8.27 0.61,-14.1 0.61,-17.5 0,-1.76 -0.1,-4.08 -0.26,-7.08 -3.94,1.53 -8.13,3.91 -12.53,7.08 -4.4,3.23 -7.87,6.91 -10.48,11.04 -1.89,3 -2.81,5.83 -2.81,8.5 0,2.55 0.77,4.65 2.35,6.34 1.53,1.7 3.48,2.55 5.83,2.55 1.84,0 4.04,-0.74 6.65,-2.15 3.38,-1.87 6.91,-4.81 10.64,-8.78zm136.95 -54.76l0.1 -2.83 -0.1 -11.38 0.1 -21.57c0,-5.95 -0.56,-9.74 -1.74,-11.39 -1.18,-1.64 -4.66,-3.28 -10.33,-4.98 -0.41,-0.17 -1.07,-0.34 -1.94,-0.57l0 -1.08c0,-0.68 0.05,-1.41 0.2,-2.15 7.98,-0.91 14.83,-2.44 20.61,-4.59l4.5 -0.11c0.26,4.42 0.36,9.34 0.36,14.84l-0.36 37.54 0.61 42.36 -0.26 22.54c0,4.59 0.31,7.19 0.87,7.76 1.18,1.3 3.73,1.98 7.72,2.04 0.82,0 1.94,0.06 3.37,0.23l0 1.76c0,0.45 -0.05,0.96 -0.1,1.47 -1.79,0.45 -3.68,0.85 -5.63,1.24l-12.78 2.72c-1.89,0.39 -3.37,0.62 -4.5,0.62l0 -9.4c-0.97,0.34 -2.56,1.02 -4.65,1.98 -9.15,4.31 -17.59,6.46 -25.26,6.46 -4.65,0 -9.41,-1.7 -14.22,-5.04 -4.81,-3.34 -8.49,-8.04 -11.1,-14.04 -2.61,-5.94 -3.89,-12.06 -3.89,-18.29 0,-5.61 0.87,-10.93 2.56,-16.08 1.69,-5.1 3.94,-9.34 6.7,-12.69 1.79,-2.21 4.3,-4.42 7.52,-6.63 3.22,-2.15 5.88,-3.51 7.98,-4.13 5.27,-1.47 8.74,-2.21 10.48,-2.21 7.93,0 14.47,1.3 19.59,3.85 1.58,0.85 2.76,1.47 3.58,1.76zm0.1 60.31c0.26,-4.36 0.36,-13.31 0.36,-26.9 0,-11.49 -0.46,-18.8 -1.43,-21.86 -0.97,-3 -3.43,-5.89 -7.26,-8.61 -3.89,-2.66 -8.23,-4.02 -13.04,-4.02 -6.75,0 -12.48,2.89 -17.18,8.66 -4.7,5.83 -7.06,14.39 -7.06,25.71 0,9.91 2.56,17.84 7.62,23.78 5.07,5.94 11.41,8.89 18.98,8.89 4.35,0 8.33,-0.68 11.91,-1.98 3.58,-1.3 5.93,-2.49 7.11,-3.68zm95.58 -41l-35.29 0.34 -6.7 0c-2.71,0 -5.47,0.11 -8.28,0.4 -0.56,1.93 -0.82,3.23 -0.82,3.96l0.1 0.96 0 1.02 -0.1 4.76c0,3.96 1.13,8.83 3.43,14.56 2.25,5.78 5.47,10.19 9.67,13.2 4.2,3 9.41,4.64 15.7,4.81 3.37,-0.17 6.09,-0.62 8.08,-1.36 2,-0.74 4.81,-2.38 8.44,-4.98l6.34 -5.72 0.51 3.91c0,0.45 -0.05,0.96 -0.1,1.47 -2.61,3.68 -5.98,6.96 -10.03,9.74 -4.04,2.78 -8.18,4.81 -12.32,6.11 -2,0.62 -5.32,0.91 -9.87,0.91 -4.19,0 -8.28,-0.96 -12.33,-2.83 -5.98,-2.89 -10.74,-7.47 -14.17,-13.81 -3.43,-6.34 -5.17,-14.05 -5.17,-23.05 0,-2.89 0.51,-6.57 1.48,-11.04 0.97,-4.48 2.71,-9.29 5.22,-14.33 1.69,-3.45 3.78,-6.28 6.29,-8.49 3.53,-3.11 6.6,-5.32 9.2,-6.51 3.83,-1.76 8.28,-2.66 13.35,-2.66 5.47,0 9.92,1.13 13.35,3.34 4.7,2.89 8.24,6.69 10.54,11.27 2.3,4.64 3.48,8.89 3.48,12.69l0 1.36zm-49.15 -3.51l4.14 0c3.02,0 11.91,-0.51 26.8,-1.53 2.35,-0.17 3.79,-0.4 4.3,-0.8 1.07,-1.24 1.58,-2.32 1.58,-3.28 0,-2.04 -0.56,-4.36 -1.74,-6.91 -1.18,-2.55 -3.02,-4.53 -5.43,-5.94 -2.45,-1.42 -5.31,-2.09 -8.54,-2.09 -6.8,0 -12.22,2.83 -16.36,8.49 -3.17,4.3 -4.76,8.33 -4.76,12.06zm102.79 -55.16l3.63 -14.78c0.26,-1.93 0.56,-3.17 0.97,-3.74 0.41,-0.57 0.87,-0.85 1.38,-0.85 1.07,0 2.25,1.42 3.63,4.25 0.97,1.98 1.79,3.28 2.45,3.8 0.67,0.56 1.59,0.96 2.81,1.13l0.87 -0.06 3.79 0.39 20.81 0.28 24.6 -0.11 7.21 0 13.65 -0.28c0.56,0 1.33,0.06 2.2,0.17 3.99,0.4 6.44,0.62 7.41,0.62 0.87,0 1.54,-0.34 2.1,-1.02 0.15,-0.28 1.13,-2.49 2.91,-6.63 0.77,-1.87 1.69,-2.83 2.81,-2.83 0.46,0 1.07,0.11 1.74,0.4 0.31,1.3 0.46,2.49 0.46,3.51l-0.1 3.91 0.1 8.32c0,1.98 -0.15,8.5 -0.46,19.48 0,0.73 -0.1,1.36 -0.35,1.93 -0.67,0.51 -1.18,0.73 -1.64,0.73 -0.46,0 -0.87,-0.22 -1.23,-0.73 -0.36,-0.51 -0.82,-1.98 -1.33,-4.53 -1.17,-5.89 -2.66,-10.08 -4.4,-12.63 -1.17,-1.64 -2.86,-2.78 -5.06,-3.51 -2.2,-0.74 -7.52,-1.08 -15.85,-1.08 -6.7,0 -11.66,0.11 -14.88,0.4 -0.11,2.6 -0.16,4.98 -0.16,7.13l0.72 60.59c0,2.38 -0.1,6.91 -0.35,13.65l0.05 12.97 -0.05 7.19c0,2.32 0.35,3.91 1.07,4.87 0.67,0.96 2.56,1.93 5.68,2.83 5.42,1.53 9.05,2.44 10.84,2.78 1.13,0.11 2.04,0.34 2.76,0.74l0 2.94 -12.53 -0.4c-6.91,-0.06 -12.07,-0.17 -15.5,-0.45l-12.89 0.68 -9.41 0.57c-2.66,0 -4.3,-0.06 -4.86,-0.17l-1.22 -0.62c0.15,-1.47 0.41,-2.43 0.82,-2.89 0.41,-0.4 1.48,-0.74 3.22,-1.02 2.51,-0.4 5.42,-1.07 8.74,-2.09 3.33,-0.96 5.52,-1.98 6.6,-3.06 0.56,-0.57 0.97,-1.53 1.23,-2.94 0.56,-2.83 0.81,-8.44 0.81,-16.87l0 -16.54 -0.35 -36.19 -0.36 -7.81 -0.1 -26.05c-3.69,-0.45 -8.39,-0.68 -14.17,-0.68 -8.44,0 -13.6,0.57 -15.44,1.76 -2.87,1.81 -7.16,7.13 -12.84,15.97 -1.89,3.34 -3.53,4.98 -4.91,4.98l-0.82 -0.17c-0.25,-0.4 -0.36,-0.79 -0.36,-1.07 0,-0.8 0.46,-3.12 1.43,-7.02 1.18,-5.04 1.84,-8.38 2.1,-10.14zm111.54 107.09c1.28,-0.62 2.61,-0.96 3.99,-1.07 8.95,-0.62 14.11,-1.81 15.39,-3.57 1.28,-1.76 1.94,-10.08 1.94,-25.03l-0.1 -10.25 0 -10.7 -0.36 -11.83 0.2 -6.91 -0.1 -7.59 0 -9 -0.15 -3.96 0.15 -5.1c0.05,-1.19 0.1,-2.55 0.1,-4.08 0,-4.13 -0.2,-8.44 -0.56,-12.97 -0.2,-0.91 -0.51,-1.81 -0.97,-2.66 -2.15,-1.25 -5.63,-2.1 -10.48,-2.5 -4.86,-0.39 -7.57,-0.9 -8.23,-1.41 -0.46,-0.4 -0.77,-1.36 -0.82,-3l7.42 0 23.32 0.57c5.98,0 14.01,-0.17 23.98,-0.57 0,1.02 -0.05,1.98 -0.2,2.94 -1.18,0.28 -3.12,0.62 -5.88,1.02 -5.57,0.74 -9,1.42 -10.23,2.1 -0.77,0.28 -1.33,0.85 -1.69,1.64 -0.56,1.19 -0.92,3.34 -1.02,6.51l-0.46 12.63 0.35 43.38 0 17.16c-0.1,5.38 -0.15,9.06 -0.15,11.04 0,7.3 0.15,11.95 0.46,13.93 0.31,2.04 0.87,3.51 1.69,4.36 0.77,0.85 2.1,1.58 3.89,2.09 2.71,0.74 4.86,1.13 6.34,1.19 3.33,0.11 5.42,0.62 6.29,1.53 0.15,0.85 0.26,1.59 0.26,2.15l0 0.79c-5.37,0.17 -9.31,0.28 -11.81,0.28 -1.48,0 -4.09,-0.11 -7.82,-0.28l-12.17 0.17 -20.71 -0.06 -1.64 0 -0.2 -2.94z"/>
   <path class="fil3" d="M1142.65 1902.42c-6.78,-7.66 8.88,-19.73 8.88,-19.73l45.07 0c12.21,0 21.25,-3.04 27.11,-9.11 5.85,-6.07 8.79,-14.35 8.79,-24.84 0,-10.5 -2.94,-18.78 -8.79,-24.86 -5.86,-6.06 -14.9,-9.11 -27.11,-9.11l-71.43 0 39.27 -44.31 0 156.54 -21.79 -24.59zm-66.48 126.87l0 -289.88 126.03 0c24.44,0 45.56,4.42 63.39,13.25 17.82,8.84 31.6,21.47 41.32,37.9 9.72,16.43 14.59,35.82 14.59,58.19 0,22.35 -4.86,41.69 -14.59,57.97 -9.72,16.29 -23.5,28.92 -41.32,37.89 -17.83,8.97 -38.96,13.46 -63.39,13.46l-77.04 0 39.27 -41.83 0 113.06 -88.26 0z"/>
   <path class="fil3" d="M1507 2029.29l-64.32 -105.6 93.5 0 65.07 105.6 -94.25 0zm-68.44 -102.28l-39.27 -44.31 71.43 0c12.21,0 21.25,-3.04 27.11,-9.11 5.85,-6.07 8.79,-14.35 8.79,-24.84 0,-10.5 -2.93,-18.78 -8.79,-24.85 -5.86,-6.07 -14.9,-9.11 -27.11,-9.11l-71.43 0 39.27 -44.31 0 156.54zm-88.26 102.28l0 -289.88 126.03 0c24.43,0 45.56,4.42 63.39,13.25 17.83,8.84 31.61,21.47 41.33,37.9 9.72,16.43 14.58,35.82 14.58,58.19 0,22.35 -4.86,41.61 -14.58,57.76 -9.72,16.15 -23.5,28.51 -41.33,37.06 -17.82,8.56 -38.96,12.84 -63.39,12.84l-77.04 0 39.27 -40.17 0 113.06 -88.26 0z"/>
   <path class="fil3" d="M2028.33 1862.82l115.19 0 0 73.71 -115.19 0 0 -73.71zm5.98 166.48l-88.26 0 0 -289.89 212.8 0 0 73.71 -124.54 0 0 216.17z"/>
   <path class="fil3" d="M2637.54 2035.92c-20.94,0 -40.33,-3.67 -58.15,-10.98 -17.83,-7.31 -33.29,-17.73 -46.37,-31.26 -13.09,-13.52 -23.26,-29.54 -30.48,-48.04 -7.24,-18.49 -10.85,-38.92 -10.85,-61.28 0,-22.37 3.61,-42.79 10.85,-61.29 7.22,-18.49 17.39,-34.51 30.48,-48.04 13.08,-13.53 28.54,-23.95 46.37,-31.27 17.82,-7.31 37.21,-10.98 58.15,-10.98 25.67,0 48.44,4.97 68.25,14.91 15.04,7.54 28.09,17.62 39.18,30.24 5.99,6.81 5.65,17.14 -0.8,23.52l-31.78 31.41c-6.63,6.55 -17.42,6.7 -23.95,0.05 -4.68,-4.78 -9.62,-8.81 -14.81,-12.11 -9.35,-5.93 -19.88,-8.9 -31.6,-8.9 -9.22,0 -17.58,1.66 -25.06,4.97 -7.47,3.31 -13.9,8.15 -19.26,14.5 -5.36,6.35 -9.53,14.02 -12.52,22.98 -2.99,8.98 -4.49,18.99 -4.49,30.02 0,11.04 1.5,21.05 4.49,30.02 2.99,8.98 7.16,16.64 12.52,22.99 5.36,6.35 11.79,11.18 19.26,14.5 7.48,3.31 15.84,4.97 25.06,4.97 11.72,0 22.25,-2.97 31.6,-8.91 5.19,-3.29 10.13,-7.32 14.81,-12.1 6.54,-6.66 17.32,-6.52 23.95,0.04l31.7 31.33c6.48,6.4 6.8,16.78 0.74,23.58 -11.06,12.41 -24.07,22.43 -39.04,30.04 -19.81,10.07 -42.57,15.12 -68.25,15.12z"/>
   <path class="fil3" d="M2861.18 1847.08l116.68 0 0 70.39 -116.68 0 0 -70.39zm5.98 108.5l130.9 0 0 73.72 -217.66 0 0 -289.89 212.79 0 0 73.71 -126.03 0 0 142.46z"/>
   <path class="fil3" d="M3032.08 2027.98l0 -288.57 88.26 0 0 214.1 118.17 0 0 75.78 -205.12 0c-0.73,0 -1.31,-0.59 -1.31,-1.31z"/>
   <path class="fil3" d="M1820.4 1914.79c-2.99,8.98 -7.17,16.57 -12.53,22.78 -5.37,6.2 -11.59,10.97 -18.7,14.29 -7.1,3.31 -14.77,4.97 -23,4.97 -8.22,0 -15.9,-1.66 -23,-4.97 -7.11,-3.31 -13.34,-8.08 -18.7,-14.29 -5.37,-6.21 -9.53,-13.8 -12.53,-22.78 -2.04,-6.12 -3.34,-12.83 -3.98,-20.05l-21.74 0c-2.44,6.62 -9.39,11.06 -17.14,9.52 -5.85,-1.16 -10.58,-6 -11.65,-11.86 -1.73,-9.52 5.53,-17.8 14.73,-17.8 6.46,0 11.95,4.09 14.06,9.83l21.23 0 0 -0.07c0,-11.31 1.5,-21.46 4.49,-30.44 3,-8.97 7.16,-16.56 12.53,-22.78 5.36,-6.21 11.59,-10.97 18.7,-14.29 7.1,-3.31 14.78,-4.97 23,-4.97 8.22,0 15.89,1.66 23,4.97 7.11,3.31 13.33,8.07 18.7,14.29 5.36,6.22 9.54,13.81 12.53,22.78 2.99,8.98 4.49,19.12 4.49,30.44 0,11.32 -1.5,21.47 -4.49,30.44zm82.46 -91.11c-7.36,-18.35 -17.65,-34.37 -30.85,-48.04 -13.21,-13.67 -28.8,-24.23 -46.74,-31.68 -17.96,-7.46 -37.65,-11.18 -59.09,-11.18 -21.19,0 -40.83,3.72 -58.9,11.18 -18.07,7.45 -33.72,18.01 -46.93,31.68 -13.22,13.66 -23.5,29.68 -30.85,48.04 -7.36,18.36 -11.04,38.59 -11.04,60.67 0,21.81 3.67,41.96 11.04,60.46 7.35,18.5 17.63,34.58 30.85,48.25 13.21,13.66 28.86,24.22 46.93,31.68 18.07,7.45 37.83,11.19 59.28,11.19 21.19,0 40.76,-3.73 58.72,-11.19 17.94,-7.45 33.53,-18.02 46.74,-31.68 13.21,-13.67 23.5,-29.75 30.85,-48.25 7.35,-18.5 11.03,-38.65 11.03,-60.46 0,-22.08 -3.68,-42.31 -11.03,-60.67z"/>
   <path class="fil3" d="M1686.23 1884.42c-2.44,-6.63 -9.39,-11.06 -17.14,-9.52 -5.85,1.17 -10.58,6 -11.64,11.85 -1.74,9.52 5.53,17.8 14.73,17.8 6.46,0 11.95,-4.09 14.06,-9.83l21.74 0c-0.31,-3.33 -0.51,-6.75 -0.51,-10.31l-21.23 0z"/>
   <path class="fil3" d="M2270.28 1853.91c2.99,-8.98 7.17,-16.56 12.52,-22.78 5.37,-6.21 11.6,-10.98 18.7,-14.29 7.1,-3.31 14.77,-4.97 23,-4.97 8.22,0 15.9,1.66 23,4.97 7.1,3.31 13.34,8.08 18.7,14.29 5.37,6.21 9.54,13.8 12.53,22.78 2.04,6.12 3.33,12.83 3.98,20.05l21.74 0c2.44,-6.62 9.39,-11.06 17.14,-9.52 5.84,1.16 10.57,6 11.65,11.86 1.73,9.51 -5.54,17.8 -14.73,17.8 -6.46,0 -11.95,-4.09 -14.06,-9.83l-21.23 0 0 0.07c0,11.31 -1.5,21.46 -4.49,30.44 -2.99,8.97 -7.17,16.56 -12.53,22.78 -5.36,6.21 -11.59,10.97 -18.7,14.29 -7.1,3.31 -14.78,4.96 -23,4.96 -8.22,0 -15.89,-1.65 -23,-4.96 -7.11,-3.31 -13.33,-8.07 -18.7,-14.29 -5.36,-6.22 -9.53,-13.81 -12.52,-22.78 -2.99,-8.98 -4.49,-19.12 -4.49,-30.44 0,-11.32 1.5,-21.47 4.49,-30.44zm-82.46 91.11c7.36,18.35 17.65,34.37 30.85,48.04 13.22,13.67 28.8,24.23 46.74,31.68 17.95,7.46 37.65,11.19 59.09,11.19 21.19,0 40.83,-3.73 58.91,-11.19 18.07,-7.45 33.72,-18.01 46.93,-31.68 13.22,-13.66 23.5,-29.68 30.85,-48.04 7.36,-18.36 11.04,-38.59 11.04,-60.67 0,-21.81 -3.68,-41.96 -11.04,-60.46 -7.35,-18.5 -17.63,-34.58 -30.85,-48.25 -13.21,-13.66 -28.85,-24.22 -46.93,-31.68 -18.07,-7.45 -37.83,-11.19 -59.28,-11.19 -21.2,0 -40.77,3.73 -58.72,11.19 -17.94,7.45 -33.53,18.02 -46.74,31.68 -13.21,13.67 -23.49,29.75 -30.85,48.25 -7.35,18.5 -11.03,38.65 -11.03,60.46 0,22.08 3.67,42.31 11.03,60.67z"/>
   <path class="fil4" d="M727.88 2264.57c6.43,-2.24 4.24,-11.85 -2.51,-10.95 -12.58,1.66 -25.76,2.76 -39.14,3.25 -32.08,1.19 -63.48,-1.53 -88.45,-7.61 38.8,25.28 87.39,30.24 130.11,15.31z"/>
   <path class="fil5" d="M550.81 2200.36l-0.02 0c-0.13,0 -0.22,0.16 -0.13,0.28 16.72,22.61 41.94,37.65 69.87,40.82 17.56,2 36.61,2.69 55.91,1.98 23.13,-0.85 45.65,-3.52 65.5,-7.76 8.6,-1.84 16.56,-5.93 23.23,-11.65 8.95,-7.67 1.51,-22.07 -9.95,-19.35 -25.36,6 -53.86,9.9 -82.47,10.96 -45.8,1.7 -90,-4.2 -121.89,-15.27l-0.05 -0.01z"/>
   <g>
    <image x="344.75" y="1235.99" width="646.94" height="602.05" xlink:href="Logo-01_Images\Logo-01_ImgID1.png"/>
   </g>
   <g>
    <image x="426.64" y="1747.32" width="450.41" height="420.61" xlink:href="Logo-01_Images\Logo-01_ImgID2.png"/>
   </g>
   <path class="fil6" d="M614.42 1105.98c-109.76,15.04 -198.94,67.82 -266.37,155.41 -51.4,66.76 -79,142.73 -76.83,227.81 0.46,18.02 -5.77,25.62 -22.44,31.61 -25.81,9.28 -41.03,17.04 -66.85,28.69 -14.46,6.52 -3.54,32.49 -3.54,32.49 6.59,10.78 20.16,14.98 31.69,9.82 16.76,-7.5 33.35,-14.92 50.52,-22.62 7.97,-3.56 17.16,0.95 19.35,9.4 19.12,73.77 56.06,132.88 105.27,186.58 51.06,55.73 70.42,123.33 60.15,199.33 -9.57,70.84 11.16,132.06 63.02,182.24 8.98,8.69 17.78,18.06 24.44,28.52 2.81,4.39 7.08,7.63 12.07,9.13 31.76,9.52 72.08,15.17 112.39,15.17 42.44,0 83.28,-6.47 114.07,-17.14 5.21,-1.81 9.59,-5.43 12.43,-10.16 3.07,-5.11 6.66,-10.37 11.22,-14.06 43.56,-35.2 69.81,-79.89 78.93,-135.51 11.74,-71.61 8.76,-142.04 -13.29,-211.22 -60.96,-191.31 -240.52,-316.17 -443.09,-319.2 -27.09,-0.41 -54.24,2.85 -81.37,5.21 -8,0.7 -14.96,-5.42 -15.25,-13.43 -3.34,-92.25 55.29,-224.33 186.15,-292.54 141.87,-73.94 346.13,-50.17 461.15,104.81 7.61,10.26 21.79,13.03 32.63,6.26l0.03 -0.02c12.09,-7.56 15.27,-23.28 6.95,-34.85 -2.28,-3.17 -4.6,-6.25 -7.05,-9.22 -11.93,-14.49 -23.71,-29.34 -37.29,-42.2 -81.75,-77.43 -176.57,-114.94 -282.78,-114.94 -21.63,0 -43.72,1.56 -66.28,4.65zm-115.09 931.13c-5.59,-21.15 -5.23,-44.78 -3.2,-66.88 8.79,-95.57 -15.67,-179.59 -82.62,-249.73 -42.13,-44.13 -70.83,-95.5 -84.97,-154.91 -1.88,-7.94 3.43,-15.81 11.49,-17.07 95.65,-14.93 185.48,-2.5 270.1,41.85 110.16,57.74 182.56,146.6 211.28,268.64 14.15,60.12 14.24,121.1 -3.22,180.34 -18.58,63.02 -64.9,98.26 -127.69,112.39 -11.04,2.48 -22.22,3.67 -33.33,3.67 -70.89,0 -139.39,-48.44 -157.84,-118.31z"/>
   <path class="fil7" d="M408.5 1305.32l-7.34 9.67c0,0 -47.83,122.51 -42.72,129.01 5.11,6.5 52.24,23.62 52.24,23.62l26.26 1.18 279.5 -12.54 23.59 -181.38 -331.53 30.44z"/>
   <path class="fil8" d="M408.51 1305.32c41.07,7.18 72.05,42.62 72.98,84.85l41.56 0 21.25 -21.25 58.56 0c2.52,-5.18 7.83,-8.76 13.97,-8.76 8.59,0 15.55,6.97 15.55,15.56 0,8.59 -6.96,15.55 -15.55,15.55 -7.23,0 -13.3,-4.95 -15.03,-11.64l-53.06 0 -21.25 21.25 -56.98 0 0.23 -5.57c1.66,-41.04 -29.05,-76.03 -69.35,-80.25 -0.08,-0.01 -0.15,-0.06 -0.23,-0.07 -22.91,31.27 -40.52,66.64 -51.32,104.96 -6.85,24.27 11.63,48 36.7,47.56 0.16,-0 0.32,-0 0.48,-0.01 7.94,-0.13 15.81,-0.06 23.66,0.11 18.38,-4.22 34.83,-14.95 46.02,-30.85l1.59 -2.26c0.01,-0 0.02,-0.01 0.02,-0.02l76.04 0c2.42,-5.44 7.87,-9.25 14.21,-9.25 8.59,0 15.55,6.96 15.55,15.56 0,8.59 -6.96,15.55 -15.55,15.55 -7.06,0 -13.01,-4.7 -14.91,-11.15l-69.84 0 -0.03 0.02c-7.37,9.79 -16.56,17.7 -26.85,23.59 185.59,12.3 342.83,110.43 431.81,258.44 12.62,20.99 42.08,24.06 58.63,6.01 50.64,-55.22 82.85,-127.46 86.52,-207.65 8.41,-183.78 -136.15,-339.76 -322.87,-348.39 -5.4,-0.25 -10.78,-0.37 -16.13,-0.37 -107.67,-0 -204.4,50 -266.41,128.48z"/>
   <path class="fil9" d="M669.46 1350.45c-6.7,0 -12.4,-3.98 -14.59,-9.55l-62.31 0c-2.19,5.57 -7.88,9.55 -14.59,9.55 -8.59,0 -15.55,-6.52 -15.55,-14.56 0,-8.05 6.96,-14.56 15.55,-14.56 6.71,0 12.41,3.98 14.59,9.55l62.31 0c2.19,-5.57 7.88,-9.55 14.59,-9.55 8.59,0 15.55,6.52 15.55,14.56 0,8.04 -6.96,14.56 -15.55,14.56z"/>
   <path class="fil9" d="M403.94 1457.63c-4.49,0.62 -8.48,-2.91 -8.48,-7.44l0 -0c0,-3.7 2.69,-6.89 6.35,-7.39 24.36,-3.34 43.63,-23.76 44.66,-49.17 0.98,-23.93 -14.56,-44.72 -36.42,-51.49 -3.11,-0.96 -5.15,-3.93 -5.15,-7.18 0,-5.08 4.94,-8.64 9.79,-7.12 28.09,8.8 48.01,35.6 46.76,66.39 -1.33,32.73 -26.15,59.06 -57.51,63.4z"/>
   <path class="fil9" d="M576.78 1429.33c-6.4,0 -11.81,-4.18 -13.7,-9.95l-86.85 0c-2.74,0 -4.96,-2.22 -4.96,-4.96 0,-2.74 2.22,-4.96 4.96,-4.96l87.21 0c2.15,-5.25 7.31,-8.95 13.33,-8.95 7.96,0 14.41,6.45 14.41,14.41 0,7.96 -6.44,14.41 -14.41,14.41z"/>
  </g>
 </g>
</svg>
